<svg width="32" height="32" viewBox="0 0 32 32" fill="none" xmlns="http://www.w3.org/2000/svg">
<path fill-rule="evenodd" clip-rule="evenodd" d="M15.75 31.5C24.4485 31.5 31.5 24.4485 31.5 15.75C31.5 7.05152 24.4485 0 15.75 0C7.05152 0 0 7.05152 0 15.75C0 24.4485 7.05152 31.5 15.75 31.5Z" fill="black" fill-opacity="0.11314"/>
<path fill-rule="evenodd" clip-rule="evenodd" d="M18.9975 11.2375C17.8732 12.3618 15.5503 15.9766 15.6849 16.1669C17.1124 18.1849 18.8908 20.504 18.8908 20.504C19.4896 19.0523 17.0443 22.9245 15.832 21.9263L11.4223 18.2954C9.96891 17.0988 9.9641 14.8747 11.4123 13.6718L15.8998 9.94422C17.4452 8.66052 20.4181 9.81692 18.9975 11.2375Z" fill="white"/>
</svg>
