<svg width="32" height="32" viewBox="0 0 32 32" fill="none" xmlns="http://www.w3.org/2000/svg">
<path fill-rule="evenodd" clip-rule="evenodd" d="M15.75 31.5C24.4485 31.5 31.5 24.4485 31.5 15.75C31.5 7.05152 24.4485 0 15.75 0C7.05152 0 0 7.05152 0 15.75C0 24.4485 7.05152 31.5 15.75 31.5Z" fill="black" fill-opacity="0.11314"/>
<path fill-rule="evenodd" clip-rule="evenodd" d="M22.7939 10.318C21.6401 11.5672 19.2563 15.5836 19.3944 15.795C20.8593 18.0372 22.6844 20.6141 22.6844 20.6141C22.6658 22.3589 20.7895 23.3035 19.5454 22.1943L15.2956 18.4058C13.6611 16.9486 13.6557 14.2405 15.2844 12.7757L19.6149 8.88097C21.2009 7.45463 24.2518 8.73951 22.7939 10.318Z" fill="white"/>
<path fill-rule="evenodd" clip-rule="evenodd" d="M8.70609 10.318C9.85987 11.5672 12.2437 15.5836 12.1056 15.795C10.6407 18.0372 8.81561 20.6141 8.81561 20.6141C8.83417 22.3589 10.7105 23.3035 11.9546 22.1943L16.2044 18.4058C17.8389 16.9486 17.8443 14.2405 16.2156 12.7757L11.8851 8.88097C10.2991 7.45463 7.24825 8.73951 8.70609 10.318Z" fill="white"/>
</svg>
