<svg width="43" height="25" viewBox="0 0 43 25" fill="none" xmlns="http://www.w3.org/2000/svg">
<path fill-rule="evenodd" clip-rule="evenodd" d="M8.00174 0.00711274C7.51823 -0.293996 -1.49975 9.03898 0.217014 13.9758C1.43488 17.0283 5.80685 15.1944 6.91399 13.5542C7.45027 12.8168 8.54561 11.1236 8.7269 10.4234C8.8936 9.7794 8.7269 9.39983 8.0621 9.76108C7.3975 10.1223 4.85922 11.4385 3.8924 11.232C2.92539 11.0255 3.8966 9.71926 4.45986 8.97844C4.97236 8.30413 8.63356 3.70665 9.02912 3.19823C9.45126 2.65556 9.99594 1.87371 9.45206 1.15101C8.90819 0.428506 8.00174 0.00711274 8.00174 0.00711274Z" fill="white" fill-opacity="0.6"/>
<path fill-rule="evenodd" clip-rule="evenodd" d="M17.2476 12.5219C16.4015 17.408 12.7757 21.2013 9.51246 18.9735C8.86785 18.5722 8.90802 17.6489 8.6058 17.7091C8.30378 17.7692 7.96119 18.8731 8.06193 19.6271C8.1117 19.9987 8.12389 23.8505 12.988 24.3924C15.334 24.6332 18.3088 22.6248 18.9398 18.853C19.5642 15.12 19.7253 12.3666 18.9398 10.7027C18.1541 9.03886 17.7915 9.76137 17.7311 10.0625C17.6706 10.3636 17.3617 11.9502 17.2476 12.5219Z" fill="white" fill-opacity="0.6"/>
<path fill-rule="evenodd" clip-rule="evenodd" d="M17.9128 6.63027C18.0965 7.111 18.5171 8.40008 19.4841 7.87652C20.4509 7.35277 19.8467 6.63027 19.4841 6.20887C19.1215 5.78728 18.6984 5.00464 17.9128 5.24541C17.1273 5.48637 17.9128 5.72714 17.9128 5.90776C17.9128 6.08839 17.7849 6.2955 17.9128 6.63027Z" fill="white" fill-opacity="0.6"/>
<path fill-rule="evenodd" clip-rule="evenodd" d="M27.4538 13.9606C28.4116 11.0978 29.7524 7.41862 32.6083 6.69512C33.867 6.45396 35.5969 6.45993 36.1916 8.33509C36.5859 9.57935 35.42 11.8184 34.6931 13.3735C34.073 14.6998 33.5342 15.9283 32.739 15.8913C31.9523 15.8548 31.5032 14.9718 32.1666 13.4127C32.6933 12.1754 32.8516 12.097 32.8999 11.6628C32.9483 11.2289 32.7384 11.0052 32.2707 11.0731C31.6933 11.157 29.7101 13.8747 29.0065 14.801C28.8784 14.9698 28.22 15.9616 27.8048 15.8863C26.8974 15.7216 27.1608 14.8362 27.4538 13.9606Z" fill="white" fill-opacity="0.6"/>
<path fill-rule="evenodd" clip-rule="evenodd" d="M14.1782 9.70091C13.9365 10.1223 13.3926 10.604 13.0904 10.9912C12.7882 11.3783 11.8214 12.6513 11.7724 11.7991C11.7234 10.9472 12.3678 9.83573 13.3321 9.27951C14.4804 8.61715 14.4198 9.27951 14.1782 9.70091ZM14.4805 6.14864C13.3928 5.90787 12.005 5.63205 11.0474 6.99162C8.96044 9.95432 9.28324 10.2429 9.40417 12.0491C9.5251 13.8554 10.3712 15.722 11.8215 15.722C13.2718 15.722 16.2934 13.434 16.4747 11.3567C16.656 9.27961 15.5683 6.38941 14.4805 6.14864Z" fill="white" fill-opacity="0.6"/>
<path fill-rule="evenodd" clip-rule="evenodd" d="M40.5053 9.99349C40.2637 10.4149 39.7198 10.8966 39.4176 11.2838C39.1154 11.6707 38.1485 12.9438 38.0996 12.0917C38.0506 11.2397 38.695 10.1283 39.6592 9.57209C40.8075 8.90973 40.747 9.57209 40.5053 9.99349ZM42.4289 12.37C42.4299 10.684 41.6622 9.29141 41.6622 9.29141C41.5011 8.87778 41.6508 8.64458 41.8721 8.46117C42.7499 7.73389 42.4473 7.09941 42.327 6.94607C42.0967 6.65293 41.7973 6.39603 41.1989 6.68359C40.1181 7.20277 38.4807 8.0352 38.002 8.44385C36.966 9.32845 36.7963 10.7366 36.593 11.5673C36.3354 12.6209 36.6134 14.0036 36.9117 14.4095C37.2439 14.8617 37.7733 15.3777 38.5459 15.5484C38.7014 15.5826 39.0698 15.6173 39.2544 15.631C39.1301 16.1978 38.7589 16.6887 38.4187 17.1816C37.7158 18.1994 36.6878 19.2539 34.9886 19.5966C34.0931 19.7257 32.4879 19.3543 32.0216 18.106C31.8243 17.7161 31.6608 17.4677 31.259 18.4939C31.0174 19.1535 30.9205 20.99 31.9856 22.2845C32.5673 23.0673 35.6908 25.7867 39.014 23.423C42.5699 21.0201 42.4257 17.3726 42.4289 12.37Z" fill="white" fill-opacity="0.6"/>
<path fill-rule="evenodd" clip-rule="evenodd" d="M25.2261 9.70091C24.9845 10.1223 24.4406 10.604 24.1384 10.9912C23.8362 11.3783 22.8693 12.6513 22.8204 11.7991C22.7714 10.9472 23.4158 9.83573 24.38 9.27951C25.5283 8.61715 25.4678 9.27951 25.2261 9.70091ZM25.5287 6.14864C24.441 5.90787 23.0532 5.63205 22.0956 6.99162C20.0086 9.95432 20.3314 10.2429 20.4524 12.0491C20.5733 13.8554 21.4194 15.722 22.8697 15.722C24.32 15.722 27.3416 13.434 27.5229 11.3567C27.7042 9.27961 26.6165 6.38941 25.5287 6.14864Z" fill="white" fill-opacity="0.6"/>
</svg>
