<svg width="59" height="59" viewBox="0 0 59 59" fill="none" xmlns="http://www.w3.org/2000/svg">
<path fill-rule="evenodd" clip-rule="evenodd" d="M29.1667 58.3333C45.275 58.3333 58.3333 45.275 58.3333 29.1667C58.3333 13.0584 45.275 0 29.1667 0C13.0584 0 0 13.0584 0 29.1667C0 45.275 13.0584 58.3333 29.1667 58.3333Z" fill="white"/>
<path fill-rule="evenodd" clip-rule="evenodd" d="M29.1668 52.5001C42.0535 52.5001 52.5002 42.0534 52.5002 29.1668C52.5002 16.2801 42.0535 5.83344 29.1668 5.83344C16.2802 5.83344 5.8335 16.2801 5.8335 29.1668C5.8335 42.0534 16.2802 52.5001 29.1668 52.5001Z" fill="#DF989B"/>
<path fill-rule="evenodd" clip-rule="evenodd" d="M23.6978 29.4212C23.6978 27.8587 24.2373 22.8962 24.2373 22.8962C24.4416 20.8953 26.0394 20.0394 27.8109 20.9941C27.8109 20.9941 31.7069 23.0525 32.9793 23.8927C33.8001 24.4348 37.1612 27.1597 37.1612 27.1597C38.7272 28.417 38.7336 30.4522 37.1603 31.7122C37.1603 31.7122 33.7788 34.4519 32.9473 35.001C31.6856 35.8342 27.8117 37.8793 27.8117 37.8793C26.0419 38.8292 24.4394 37.9784 24.2386 35.9807C24.2386 35.9807 23.6978 30.9938 23.6978 29.4212Z" fill="white"/>
</svg>
