<svg width="17" height="17" viewBox="0 0 17 17" fill="none" xmlns="http://www.w3.org/2000/svg">
<path d="M13.0077 9.94471L16.6596 6.93413C17.1762 6.50659 16.909 5.66933 16.2321 5.6337L11.5291 5.34868C11.2441 5.33086 10.9947 5.15272 10.8878 4.88551L9.15987 0.467619C8.91047 -0.155873 8.03758 -0.155873 7.78818 0.467619L6.06022 4.8677C5.95333 5.13491 5.70394 5.31305 5.41891 5.33086L0.69818 5.61589C0.0212453 5.65152 -0.245966 6.48878 0.270642 6.91632L3.92253 9.90908C4.1363 10.0872 4.24318 10.3901 4.17192 10.6573L2.97838 15.2355C2.81805 15.8768 3.5128 16.3934 4.08285 16.0371L8.05539 13.4897C8.30479 13.3294 8.60763 13.3294 8.83921 13.4897L12.8296 16.0371C13.3996 16.3934 14.0944 15.8768 13.934 15.2355L12.7405 10.6751C12.6871 10.4079 12.7761 10.1228 13.0077 9.94471Z" fill="#F5BD2F"/>
</svg>
